<?xml version="1.0" encoding="UTF-8" standalone="no"?>
<svg id="ExportContainer_SVG" width="900" height="600" viewBox="0 0 900 600" xmlns="http://www.w3.org/2000/svg" xmlns:xlink="http://www.w3.org/1999/xlink" version="2.0" style="font-size:10px;font-family:Calibri,Verdana,Arial,sans-serif"><defs><rect id="rect0" x="4" y="4" width="97.0698567894948" height="46.16994975306772"/><rect id="rect1" x="4" y="56.16994975306772" width="97.0698567894948" height="131.30956956822413"/><rect id="rect2" x="4" y="189.47951932129186" width="28.825678068896025" height="59.25347020153495"/><rect id="rect3" x="34.825678068896025" y="189.47951932129186" width="40.382566221544835" height="59.25347020153495"/><rect id="rect4" x="77.20824429044086" y="189.47951932129186" width="23.86161249905396" height="59.25347020153495"/><rect id="rect5" x="4" y="250.7329895228268" width="61.71522432637644" height="69.93347393912813"/><rect id="rect6" x="67.71522432637644" y="250.7329895228268" width="33.354632463118364" height="69.93347393912813"/><rect id="rect7" x="4" y="322.66646346195495" width="26.89236705410848" height="68.1297299273482"/><rect id="rect8" x="32.892367054108476" y="322.66646346195495" width="31.9593116330809" height="68.1297299273482"/><rect id="rect9" x="66.85167868718938" y="322.66646346195495" width="34.21817810230543" height="68.1297299273482"/><rect id="rect10" x="4" y="392.79619338930314" width="41.630103059784766" height="53.892458515394935"/><rect id="rect11" x="47.630103059784766" y="392.79619338930314" width="26.704156541050317" height="53.892458515394935"/><rect id="rect12" x="76.33425960083508" y="392.79619338930314" width="24.73559718865974" height="53.892458515394935"/><rect id="rect13" x="4" y="448.6886519046981" width="38.360545683122226" height="60.21158408777097"/><rect id="rect14" x="44.360545683122226" y="448.6886519046981" width="29.400337446107088" height="60.21158408777097"/><rect id="rect15" x="75.76088312922931" y="448.6886519046981" width="25.308973660265508" height="60.21158408777097"/><rect id="rect16" x="4" y="510.90023599246905" width="59.09435042384007" height="45.56946849959337"/><rect id="rect17" x="4" y="558.4697044920624" width="59.09435042384007" height="37.53029550793735"/><rect id="rect18" x="65.09435042384007" y="510.90023599246905" width="35.97550636565475" height="39.67245252381821"/><rect id="rect19" x="65.09435042384007" y="552.5726885162873" width="35.97550636565474" height="43.427311483712515"/><rect id="rect20" x="107.0698567894948" y="4" width="197.49154389616206" height="104.33660632613504"/><rect id="rect21" x="306.56140068565685" y="4" width="21.87802234113832" height="104.33660632613504"/><rect id="rect22" x="330.43942302679517" y="4" width="27.519297057411734" height="104.33660632613504"/><rect id="rect23" x="359.9587200842069" y="4" width="37.0442896671579" height="104.33660632613504"/><rect id="rect24" x="399.0030097513648" y="4" width="29.202239292513866" height="104.33660632613504"/><rect id="rect25" x="430.20524904387867" y="4" width="15.093274382889945" height="104.33660632613504"/><rect id="rect26" x="447.2985234267686" y="4" width="46.82471644860999" height="104.33660632613504"/><rect id="rect27" x="496.1232398753786" y="4" width="25.88817550703908" height="104.33660632613504"/><rect id="rect28" x="524.0114153824177" y="4" width="50.60179194357886" height="104.33660632613504"/><rect id="rect29" x="107.0698567894948" y="110.33660632613504" width="21.90360777818954" height="75.93364749774884"/><rect id="rect30" x="130.97346456768435" y="110.33660632613504" width="86.83039796824482" height="75.93364749774884"/><rect id="rect31" x="219.80386253592917" y="110.33660632613504" width="32.07495785921935" height="75.93364749774884"/><rect id="rect32" x="253.87882039514852" y="110.33660632613504" width="126.97363473412531" height="75.93364749774884"/><rect id="rect33" x="382.85245512927384" y="110.33660632613504" width="161.43095061247539" height="75.93364749774884"/><rect id="rect34" x="546.2834057417492" y="110.33660632613504" width="28.32980158424732" height="75.93364749774884"/><rect id="rect35" x="107.0698567894948" y="188.27025382388388" width="105.96099754486418" height="151.58965157709133"/><rect id="rect36" x="107.0698567894948" y="341.8599054009752" width="105.96099754486418" height="53.469159634706216"/><rect id="rect37" x="107.0698567894948" y="397.3290650356814" width="105.96099754486418" height="76.44768566551147"/><rect id="rect38" x="107.0698567894948" y="475.7767507011929" width="105.96099754486418" height="22.36772347261177"/><rect id="rect39" x="107.0698567894948" y="500.14447417380467" width="105.96099754486418" height="95.85552582619556"/><rect id="rect40" x="215.030854334359" y="188.27025382388388" width="67.8505025215855" height="95.00955987618727"/><rect id="rect41" x="284.8813568559445" y="188.27025382388388" width="16.961483636471087" height="95.00955987618727"/><rect id="rect42" x="303.8428404924156" y="188.27025382388388" width="88.98091702421436" height="95.00955987618727"/><rect id="rect43" x="394.82375751662994" y="188.27025382388388" width="179.7894498093666" height="95.00955987618727"/><rect id="rect44" x="215.030854334359" y="285.27981370007114" width="81.13589612674292" height="32.299072733417006"/><rect id="rect45" x="215.030854334359" y="319.57888643348815" width="81.13589612674292" height="17.608906900847387"/><rect id="rect46" x="215.030854334359" y="339.18779333433554" width="81.13589612674292" height="20.790357992159613"/><rect id="rect47" x="215.030854334359" y="361.97815132649515" width="81.13589612674292" height="17.855341532679176"/><rect id="rect48" x="215.030854334359" y="381.8334928591743" width="81.13589612674292" height="19.040766181649474"/><rect id="rect49" x="215.030854334359" y="402.8742590408238" width="81.13589612674292" height="37.23424426225131"/><rect id="rect50" x="215.030854334359" y="442.1085033030751" width="81.13589612674292" height="121.07702409451275"/><rect id="rect51" x="215.030854334359" y="565.1855273975879" width="81.13589612674292" height="30.814472602412252"/><rect id="rect52" x="298.1667504611019" y="285.27981370007114" width="26.684322442913356" height="64.95374091230292"/><rect id="rect53" x="326.85107290401527" y="285.27981370007114" width="21.57205145906954" height="64.95374091230292"/><rect id="rect54" x="350.4231243630848" y="285.27981370007114" width="24.792148898182575" height="64.95374091230292"/><rect id="rect55" x="377.2152732612674" y="285.27981370007114" width="34.39314720199798" height="64.95374091230292"/><rect id="rect56" x="413.60842046326536" y="285.27981370007114" width="58.369224139796415" height="64.95374091230292"/><rect id="rect57" x="473.9776446030618" y="285.27981370007114" width="31.10649657292879" height="64.95374091230292"/><rect id="rect58" x="507.08414117599057" y="285.27981370007114" width="25.929009063991884" height="64.95374091230292"/><rect id="rect59" x="535.0131502399825" y="285.27981370007114" width="39.60005708601409" height="64.95374091230292"/><rect id="rect60" x="298.1667504611019" y="352.23355461237406" width="44.04301868282977" height="41.767888659223615"/><rect id="rect61" x="298.1667504611019" y="396.0014432715977" width="44.04301868282977" height="55.29553331789225"/><rect id="rect62" x="298.1667504611019" y="453.29697658948993" width="44.04301868282977" height="32.09234343632659"/><rect id="rect63" x="298.1667504611019" y="487.3893200258165" width="44.04301868282977" height="69.95347410346591"/><rect id="rect64" x="298.1667504611019" y="559.3427941292824" width="44.04301868282977" height="36.65720587071769"/><rect id="rect65" x="344.2097691439317" y="352.23355461237406" width="212.25149178932656" height="94.82591206568975"/><rect id="rect66" x="558.4612609332582" y="352.23355461237406" width="16.151946392738296" height="94.82591206568975"/><rect id="rect67" x="344.2097691439317" y="449.0594666780638" width="59.36212543736377" height="54.65015754598062"/><rect id="rect68" x="344.2097691439317" y="505.70962422404443" width="59.36212543736377" height="45.39504969757604"/><rect id="rect69" x="344.2097691439317" y="553.1046739216205" width="59.36212543736377" height="42.895326078379526"/><rect id="rect70" x="405.57189458129545" y="449.0594666780638" width="54.5464677080671" height="70.88216978452374"/><rect id="rect71" x="405.57189458129545" y="521.9416364625876" width="54.5464677080671" height="74.05836353741256"/><rect id="rect72" x="462.11836228936255" y="449.0594666780638" width="112.49484503663399" height="115.02058308953167"/><rect id="rect73" x="462.11836228936255" y="566.0800497675955" width="57.42281648557463" height="29.91995023240463"/><rect id="rect74" x="521.5411787749372" y="566.0800497675955" width="53.07202855106027" height="29.91995023240463"/><rect id="rect75" x="580.6132073259965" y="4" width="14.052596084584707" height="176.11949375579053"/><rect id="rect76" x="600.6658034105812" y="4" width="52.05481092893956" height="122.64190060721165"/><rect id="rect77" x="600.6658034105812" y="128.64190060721165" width="52.05481092893956" height="51.477593148578876"/><rect id="rect78" x="658.7206143395208" y="4" width="76.20650674736385" height="60.8593162257702"/><rect id="rect79" x="658.7206143395208" y="66.8593162257702" width="76.20650674736385" height="24.39167703406983"/><rect id="rect80" x="658.7206143395208" y="93.25099325984003" width="76.20650674736385" height="26.44006926529302"/><rect id="rect81" x="658.7206143395208" y="121.69106252513305" width="76.20650674736385" height="58.42843123065748"/><rect id="rect82" x="736.9271210868847" y="4" width="30.629398561770245" height="58.002330848283"/><rect id="rect83" x="769.5565196486549" y="4" width="24.25685497965503" height="58.002330848283"/><rect id="rect84" x="795.8133746283099" y="4" width="24.898073718425394" height="58.002330848283"/><rect id="rect85" x="822.7114483467353" y="4" width="43.44495633406257" height="58.002330848283"/><rect id="rect86" x="868.1564046807979" y="4" width="27.84359531920211" height="58.002330848283"/><rect id="rect87" x="736.9271210868847" y="64.00233084828301" width="52.50872563307814" height="83.50318141249457"/><rect id="rect88" x="736.9271210868847" y="149.50551226077758" width="52.50872563307814" height="30.61398149501295"/><rect id="rect89" x="791.4358467199628" y="64.00233084828301" width="78.6840897988302" height="57.1296398587462"/><rect id="rect90" x="872.119936518793" y="64.00233084828301" width="23.880063481207003" height="57.1296398587462"/><rect id="rect91" x="791.4358467199628" y="123.13197070702921" width="59.82181360835966" height="32.234466743109124"/><rect id="rect92" x="791.4358467199628" y="157.36643745013833" width="59.82181360835966" height="22.753056305652194"/><rect id="rect93" x="853.2576603283225" y="123.13197070702921" width="42.74233967167754" height="56.98752304876123"/><rect id="rect94" x="580.6132073259965" y="186.11949375579053" width="92.06379057067011" height="15.170864421882186"/><rect id="rect95" x="678.6769978966666" y="186.11949375579053" width="115.17128116647814" height="15.170864421882186"/><rect id="rect96" x="799.8482790631448" y="186.11949375579053" width="96.15172093685476" height="15.170864421882186"/><rect id="rect97" x="580.6132073259965" y="207.29035817767272" width="79.90753180945046" height="103.92839312707173"/><rect id="rect98" x="580.6132073259965" y="313.21875130474444" width="79.90753180945046" height="69.98796811755096"/><rect id="rect99" x="580.6132073259965" y="385.2067194222954" width="79.90753180945046" height="24.844917655015365"/><rect id="rect100" x="580.6132073259965" y="412.0516370773108" width="79.90753180945046" height="31.41594867909953"/><rect id="rect101" x="662.520739135447" y="207.29035817767272" width="75.98542194746472" height="51.906784042863194"/><rect id="rect102" x="740.5061610829117" y="207.29035817767272" width="39.968049186016515" height="51.906784042863194"/><rect id="rect103" x="782.4742102689282" y="207.29035817767272" width="35.61020358783446" height="51.906784042863194"/><rect id="rect104" x="820.0844138567627" y="207.29035817767272" width="43.91887997107574" height="51.906784042863194"/><rect id="rect105" x="866.0032938278384" y="207.29035817767272" width="29.996706172161566" height="51.906784042863194"/><rect id="rect106" x="662.520739135447" y="261.1971422205359" width="76.44078672873593" height="108.5498278149222"/><rect id="rect107" x="662.520739135447" y="371.7469700354581" width="76.44078672873593" height="20.0940659112228"/><rect id="rect108" x="662.520739135447" y="393.8410359466809" width="76.44078672873593" height="29.801846573018906"/><rect id="rect109" x="662.520739135447" y="425.6428825196998" width="76.44078672873593" height="17.824703236710434"/><rect id="rect110" x="740.9615258641829" y="261.1971422205359" width="31.358324228329366" height="55.41254154901475"/><rect id="rect111" x="774.3198500925123" y="261.1971422205359" width="28.91509277047578" height="55.41254154901475"/><rect id="rect112" x="805.2349428629881" y="261.1971422205359" width="47.25570446261838" height="55.41254154901475"/><rect id="rect113" x="854.4906473256065" y="261.1971422205359" width="41.509352674393654" height="55.41254154901475"/><rect id="rect114" x="740.9615258641829" y="318.60968376955066" width="62.76682625022397" height="29.775433000710564"/><rect id="rect115" x="740.9615258641829" y="350.3851167702612" width="62.76682625022397" height="22.60499032414515"/><rect id="rect116" x="740.9615258641829" y="374.99010709440637" width="62.76682625022397" height="27.675836495142278"/><rect id="rect117" x="740.9615258641829" y="404.66594358954865" width="62.76682625022397" height="38.80164216686154"/><rect id="rect118" x="805.7283521144069" y="318.60968376955066" width="24.752716418178466" height="54.76787085047101"/><rect id="rect119" x="832.4810685325854" y="318.60968376955066" width="31.857351303056475" height="54.76787085047101"/><rect id="rect120" x="866.3384198356418" y="318.60968376955066" width="29.661580164358156" height="54.76787085047101"/><rect id="rect121" x="805.7283521144069" y="375.37755462002167" width="67.44227561956825" height="32.12591222264933"/><rect id="rect122" x="805.7283521144069" y="409.503466842671" width="67.44227561956825" height="33.96411891373924"/><rect id="rect123" x="875.1706277339752" y="375.37755462002167" width="20.829372266024848" height="68.09003113638857"/><rect id="rect124" x="580.6132073259965" y="449.46758575641024" width="54.997657773641436" height="50.53439505469248"/><rect id="rect125" x="637.610865099638" y="449.46758575641024" width="25.686068466939446" height="50.53439505469248"/><rect id="rect126" x="580.6132073259965" y="502.0019808111027" width="52.71806150011059" height="34.982818452961055"/><rect id="rect127" x="580.6132073259965" y="538.9847992640638" width="52.71806150011059" height="36.84486846243908"/><rect id="rect128" x="635.3312688261071" y="502.0019808111027" width="27.9656647404704" height="73.82768691540014"/><rect id="rect129" x="580.6132073259965" y="581.8296677265029" width="82.683726240581" height="14.170332273497138"/><rect id="rect130" x="669.2969335665775" y="449.46758575641024" width="18.665487326592483" height="73.02119377305871"/><rect id="rect131" x="669.2969335665775" y="528.488779529469" width="18.665487326592483" height="67.51122047053104"/><rect id="rect132" x="693.96242089317" y="449.46758575641024" width="57.720428662143036" height="40.31825092946099"/><rect id="rect133" x="693.96242089317" y="491.78583668587123" width="57.720428662143036" height="28.754308179900363"/><rect id="rect134" x="753.682849555313" y="449.46758575641024" width="48.34419496481348" height="38.188475564924886"/><rect id="rect135" x="753.682849555313" y="489.65606132133513" width="48.34419496481348" height="30.884083544436464"/><rect id="rect136" x="804.0270445201265" y="449.46758575641024" width="48.26255534309507" height="34.57054127494388"/><rect id="rect137" x="804.0270445201265" y="486.0381270313541" width="48.26255534309507" height="34.50201783441747"/><rect id="rect138" x="854.2895998632216" y="449.46758575641024" width="30.727642874382468" height="71.07255910936135"/><rect id="rect139" x="693.96242089317" y="526.5401448657716" width="103.1158412525524" height="34.62391652886856"/><rect id="rect140" x="693.96242089317" y="563.1640613946402" width="103.1158412525524" height="32.83593860535984"/><rect id="rect141" x="799.0782621457224" y="526.5401448657716" width="54.6277835606154" height="43.27367366789031"/><rect id="rect142" x="799.0782621457224" y="571.8138185336619" width="54.6277835606154" height="24.1861814663381"/><rect id="rect143" x="855.7060457063378" y="526.5401448657716" width="29.31119703126626" height="69.4598551342284"/><rect id="rect144" x="891.0172427376041" y="449.46758575641024" width="4.982757262395921" height="146.53241424358703"/></defs><g><g id="ExportContainer_Group_GO0002376"><rect x="3" y="3" width="99.0698567894948" height="48.16994975306772" rx="2" style="stroke: gainsboro; fill: white;"/><g><rect x="4" y="4" width="97.0698567894948" height="46.16994975306772" rx="2" style="fill: crimson;"/><text fill="white" x="4" y="4" style="shape-inside: url(#rect0); text-align: center;">(GO0002376, representative) immune system process</text></g></g><g id="ExportContainer_Group_GO0006749"><rect x="3" y="55.16994975306772" width="99.0698567894948" height="541.830050246932" rx="2" style="stroke: gainsboro; fill: white;"/><g><rect x="4" y="56.16994975306772" width="97.0698567894948" height="131.30956956822413" rx="2" style="fill: lightseagreen;"/><text fill="white" x="4" y="56.16994975306772" style="shape-inside: url(#rect1); text-align: center;">(GO0006749, representative) glutathione metabolic process</text></g><g><rect x="4" y="189.47951932129186" width="28.825678068896025" height="59.25347020153495" rx="2" style="fill: lightseagreen;"/><text fill="white" x="4" y="189.47951932129186" style="shape-inside: url(#rect2); text-align: center;">(GO0000731) DNA synthesis involved in DNA repair</text></g><g><rect x="34.825678068896025" y="189.47951932129186" width="40.382566221544835" height="59.25347020153495" rx="2" style="fill: lightseagreen;"/><text fill="white" x="34.825678068896025" y="189.47951932129186" style="shape-inside: url(#rect3); text-align: center;">(GO0002182) cytoplasmic translational elongation</text></g><g><rect x="77.20824429044086" y="189.47951932129186" width="23.86161249905396" height="59.25347020153495" rx="2" style="fill: lightseagreen;"/><text fill="white" x="77.20824429044086" y="189.47951932129186" style="shape-inside: url(#rect4); text-align: center;">(GO0006015) 5-phosphoribose 1-diphosphate biosynthetic process</text></g><g><rect x="4" y="250.7329895228268" width="61.71522432637644" height="69.93347393912813" rx="2" style="fill: lightseagreen;"/><text fill="white" x="4" y="250.7329895228268" style="shape-inside: url(#rect5); text-align: center;">(GO0006412) translation</text></g><g><rect x="67.71522432637644" y="250.7329895228268" width="33.354632463118364" height="69.93347393912813" rx="2" style="fill: lightseagreen;"/><text fill="white" x="67.71522432637644" y="250.7329895228268" style="shape-inside: url(#rect6); text-align: center;">(GO0006414) translational elongation</text></g><g><rect x="4" y="322.66646346195495" width="26.89236705410848" height="68.1297299273482" rx="2" style="fill: lightseagreen;"/><text fill="white" x="4" y="322.66646346195495" style="shape-inside: url(#rect7); text-align: center;">(GO0006730) one-carbon metabolic process</text></g><g><rect x="32.892367054108476" y="322.66646346195495" width="31.9593116330809" height="68.1297299273482" rx="2" style="fill: lightseagreen;"/><text fill="white" x="32.892367054108476" y="322.66646346195495" style="shape-inside: url(#rect8); text-align: center;">(GO0006754) ATP biosynthetic process</text></g><g><rect x="66.85167868718938" y="322.66646346195495" width="34.21817810230543" height="68.1297299273482" rx="2" style="fill: lightseagreen;"/><text fill="white" x="66.85167868718938" y="322.66646346195495" style="shape-inside: url(#rect9); text-align: center;">(GO0006809) nitric oxide biosynthetic process</text></g><g><rect x="4" y="392.79619338930314" width="41.630103059784766" height="53.892458515394935" rx="2" style="fill: lightseagreen;"/><text fill="white" x="4" y="392.79619338930314" style="shape-inside: url(#rect10); text-align: center;">(GO0009156) ribonucleoside monophosphate biosynthetic process</text></g><g><rect x="47.630103059784766" y="392.79619338930314" width="26.704156541050317" height="53.892458515394935" rx="2" style="fill: lightseagreen;"/><text fill="white" x="47.630103059784766" y="392.79619338930314" style="shape-inside: url(#rect11); text-align: center;">(GO0009308) amine metabolic process</text></g><g><rect x="76.33425960083508" y="392.79619338930314" width="24.73559718865974" height="53.892458515394935" rx="2" style="fill: lightseagreen;"/><text fill="white" x="76.33425960083508" y="392.79619338930314" style="shape-inside: url(#rect12); text-align: center;">(GO0015969) guanosine tetraphosphate metabolic process</text></g><g><rect x="4" y="448.6886519046981" width="38.360545683122226" height="60.21158408777097" rx="2" style="fill: lightseagreen;"/><text fill="white" x="4" y="448.6886519046981" style="shape-inside: url(#rect13); text-align: center;">(GO0018344) protein geranylgeranylation</text></g><g><rect x="44.360545683122226" y="448.6886519046981" width="29.400337446107088" height="60.21158408777097" rx="2" style="fill: lightseagreen;"/><text fill="white" x="44.360545683122226" y="448.6886519046981" style="shape-inside: url(#rect14); text-align: center;">(GO0033353) S-adenosylmethionine cycle</text></g><g><rect x="75.76088312922931" y="448.6886519046981" width="25.308973660265508" height="60.21158408777097" rx="2" style="fill: lightseagreen;"/><text fill="white" x="75.76088312922931" y="448.6886519046981" style="shape-inside: url(#rect15); text-align: center;">(GO0042180) cellular ketone metabolic process</text></g><g><rect x="4" y="510.90023599246905" width="59.09435042384007" height="45.56946849959337" rx="2" style="fill: lightseagreen;"/><text fill="white" x="4" y="510.90023599246905" style="shape-inside: url(#rect16); text-align: center;">(GO0042430) indole-containing compound metabolic process</text></g><g><rect x="4" y="558.4697044920624" width="59.09435042384007" height="37.53029550793735" rx="2" style="fill: lightseagreen;"/><text fill="white" x="4" y="558.4697044920624" style="shape-inside: url(#rect17); text-align: center;">(GO0042776) proton motive force-driven mitochondrial ATP synthesis</text></g><g><rect x="65.09435042384007" y="510.90023599246905" width="35.97550636565475" height="39.67245252381821" rx="2" style="fill: lightseagreen;"/><text fill="white" x="65.09435042384007" y="510.90023599246905" style="shape-inside: url(#rect18); text-align: center;">(GO0046900) tetrahydrofolylpolyglutamate metabolic process</text></g><g><rect x="65.09435042384007" y="552.5726885162873" width="35.97550636565474" height="43.427311483712515" rx="2" style="fill: lightseagreen;"/><text fill="white" x="65.09435042384007" y="552.5726885162873" style="shape-inside: url(#rect19); text-align: center;">(GO1901605) alpha-amino acid metabolic process</text></g></g><g id="ExportContainer_Group_GO0009407"><rect x="106.0698567894948" y="3" width="469.54335053650175" height="594.0000000000001" rx="2" style="stroke: gainsboro; fill: white;"/><g><rect x="107.0698567894948" y="4" width="197.49154389616206" height="104.33660632613504" rx="2" style="fill: tomato;"/><text fill="white" x="107.0698567894948" y="4" style="shape-inside: url(#rect20); text-align: center;">(GO0009407, representative) toxin catabolic process</text></g><g><rect x="306.56140068565685" y="4" width="21.87802234113832" height="104.33660632613504" rx="2" style="fill: tomato;"/><text fill="white" x="306.56140068565685" y="4" style="shape-inside: url(#rect21); text-align: center;">(GO0000165) MAPK cascade</text></g><g><rect x="330.43942302679517" y="4" width="27.519297057411734" height="104.33660632613504" rx="2" style="fill: tomato;"/><text fill="white" x="330.43942302679517" y="4" style="shape-inside: url(#rect22); text-align: center;">(GO0000717) nucleotide-excision repair, DNA duplex unwinding</text></g><g><rect x="359.9587200842069" y="4" width="37.0442896671579" height="104.33660632613504" rx="2" style="fill: tomato;"/><text fill="white" x="359.9587200842069" y="4" style="shape-inside: url(#rect23); text-align: center;">(GO0001778) plasma membrane repair</text></g><g><rect x="399.0030097513648" y="4" width="29.202239292513866" height="104.33660632613504" rx="2" style="fill: tomato;"/><text fill="white" x="399.0030097513648" y="4" style="shape-inside: url(#rect24); text-align: center;">(GO0002239) response to oomycetes</text></g><g><rect x="430.20524904387867" y="4" width="15.093274382889945" height="104.33660632613504" rx="2" style="fill: tomato;"/><text fill="white" x="430.20524904387867" y="4" style="shape-inside: url(#rect25); text-align: center;">(GO0002240) response to molecule of oomycetes origin</text></g><g><rect x="447.2985234267686" y="4" width="46.82471644860999" height="104.33660632613504" rx="2" style="fill: tomato;"/><text fill="white" x="447.2985234267686" y="4" style="shape-inside: url(#rect26); text-align: center;">(GO0006511) ubiquitin-dependent protein catabolic process</text></g><g><rect x="496.1232398753786" y="4" width="25.88817550703908" height="104.33660632613504" rx="2" style="fill: tomato;"/><text fill="white" x="496.1232398753786" y="4" style="shape-inside: url(#rect27); text-align: center;">(GO0006952) defense response</text></g><g><rect x="524.0114153824177" y="4" width="50.60179194357886" height="104.33660632613504" rx="2" style="fill: tomato;"/><text fill="white" x="524.0114153824177" y="4" style="shape-inside: url(#rect28); text-align: center;">(GO0006979) response to oxidative stress</text></g><g><rect x="107.0698567894948" y="110.33660632613504" width="21.90360777818954" height="75.93364749774884" rx="2" style="fill: tomato;"/><text fill="white" x="107.0698567894948" y="110.33660632613504" style="shape-inside: url(#rect29); text-align: center;">(GO0007029) endoplasmic reticulum organization</text></g><g><rect x="130.97346456768435" y="110.33660632613504" width="86.83039796824482" height="75.93364749774884" rx="2" style="fill: tomato;"/><text fill="white" x="130.97346456768435" y="110.33660632613504" style="shape-inside: url(#rect30); text-align: center;">(GO0007165) signal transduction</text></g><g><rect x="219.80386253592917" y="110.33660632613504" width="32.07495785921935" height="75.93364749774884" rx="2" style="fill: tomato;"/><text fill="white" x="219.80386253592917" y="110.33660632613504" style="shape-inside: url(#rect31); text-align: center;">(GO0007267) cell-cell signaling</text></g><g><rect x="253.87882039514852" y="110.33660632613504" width="126.97363473412531" height="75.93364749774884" rx="2" style="fill: tomato;"/><text fill="white" x="253.87882039514852" y="110.33660632613504" style="shape-inside: url(#rect32); text-align: center;">(GO0009409) response to cold</text></g><g><rect x="382.85245512927384" y="110.33660632613504" width="161.43095061247539" height="75.93364749774884" rx="2" style="fill: tomato;"/><text fill="white" x="382.85245512927384" y="110.33660632613504" style="shape-inside: url(#rect33); text-align: center;">(GO0009414) response to water deprivation</text></g><g><rect x="546.2834057417492" y="110.33660632613504" width="28.32980158424732" height="75.93364749774884" rx="2" style="fill: tomato;"/><text fill="white" x="546.2834057417492" y="110.33660632613504" style="shape-inside: url(#rect34); text-align: center;">(GO0009609) response to symbiotic bacterium</text></g><g><rect x="107.0698567894948" y="188.27025382388388" width="105.96099754486418" height="151.58965157709133" rx="2" style="fill: tomato;"/><text fill="white" x="107.0698567894948" y="188.27025382388388" style="shape-inside: url(#rect35); text-align: center;">(GO0009611) response to wounding</text></g><g><rect x="107.0698567894948" y="341.8599054009752" width="105.96099754486418" height="53.469159634706216" rx="2" style="fill: tomato;"/><text fill="white" x="107.0698567894948" y="341.8599054009752" style="shape-inside: url(#rect36); text-align: center;">(GO0009612) response to mechanical stimulus</text></g><g><rect x="107.0698567894948" y="397.3290650356814" width="105.96099754486418" height="76.44768566551147" rx="2" style="fill: tomato;"/><text fill="white" x="107.0698567894948" y="397.3290650356814" style="shape-inside: url(#rect37); text-align: center;">(GO0009620) response to fungus</text></g><g><rect x="107.0698567894948" y="475.7767507011929" width="105.96099754486418" height="22.36772347261177" rx="2" style="fill: tomato;"/><text fill="white" x="107.0698567894948" y="475.7767507011929" style="shape-inside: url(#rect38); text-align: center;">(GO0009624) response to nematode</text></g><g><rect x="107.0698567894948" y="500.14447417380467" width="105.96099754486418" height="95.85552582619556" rx="2" style="fill: tomato;"/><text fill="white" x="107.0698567894948" y="500.14447417380467" style="shape-inside: url(#rect39); text-align: center;">(GO0009627) systemic acquired resistance</text></g><g><rect x="215.030854334359" y="188.27025382388388" width="67.8505025215855" height="95.00955987618727" rx="2" style="fill: tomato;"/><text fill="white" x="215.030854334359" y="188.27025382388388" style="shape-inside: url(#rect40); text-align: center;">(GO0009651) response to salt stress</text></g><g><rect x="284.8813568559445" y="188.27025382388388" width="16.961483636471087" height="95.00955987618727" rx="2" style="fill: tomato;"/><text fill="white" x="284.8813568559445" y="188.27025382388388" style="shape-inside: url(#rect41); text-align: center;">(GO0009682) induced systemic resistance</text></g><g><rect x="303.8428404924156" y="188.27025382388388" width="88.98091702421436" height="95.00955987618727" rx="2" style="fill: tomato;"/><text fill="white" x="303.8428404924156" y="188.27025382388388" style="shape-inside: url(#rect42); text-align: center;">(GO0009737) response to abscisic acid</text></g><g><rect x="394.82375751662994" y="188.27025382388388" width="179.7894498093666" height="95.00955987618727" rx="2" style="fill: tomato;"/><text fill="white" x="394.82375751662994" y="188.27025382388388" style="shape-inside: url(#rect43); text-align: center;">(GO0009751) response to salicylic acid</text></g><g><rect x="215.030854334359" y="285.27981370007114" width="81.13589612674292" height="32.299072733417006" rx="2" style="fill: tomato;"/><text fill="white" x="215.030854334359" y="285.27981370007114" style="shape-inside: url(#rect44); text-align: center;">(GO0009801) cinnamic acid ester metabolic process</text></g><g><rect x="215.030854334359" y="319.57888643348815" width="81.13589612674292" height="17.608906900847387" rx="2" style="fill: tomato;"/><text fill="white" x="215.030854334359" y="319.57888643348815" style="shape-inside: url(#rect45); text-align: center;">(GO0009868) jasmonic acid and ethylene-dependent systemic resistance, jasmonic acid mediated signaling pathway</text></g><g><rect x="215.030854334359" y="339.18779333433554" width="81.13589612674292" height="20.790357992159613" rx="2" style="fill: tomato;"/><text fill="white" x="215.030854334359" y="339.18779333433554" style="shape-inside: url(#rect46); text-align: center;">(GO0010037) response to carbon dioxide</text></g><g><rect x="215.030854334359" y="361.97815132649515" width="81.13589612674292" height="17.855341532679176" rx="2" style="fill: tomato;"/><text fill="white" x="215.030854334359" y="361.97815132649515" style="shape-inside: url(#rect47); text-align: center;">(GO0010043) response to zinc ion</text></g><g><rect x="215.030854334359" y="381.8334928591743" width="81.13589612674292" height="19.040766181649474" rx="2" style="fill: tomato;"/><text fill="white" x="215.030854334359" y="381.8334928591743" style="shape-inside: url(#rect48); text-align: center;">(GO0010045) response to nickel cation</text></g><g><rect x="215.030854334359" y="402.8742590408238" width="81.13589612674292" height="37.23424426225131" rx="2" style="fill: tomato;"/><text fill="white" x="215.030854334359" y="402.8742590408238" style="shape-inside: url(#rect49); text-align: center;">(GO0010120) camalexin biosynthetic process</text></g><g><rect x="215.030854334359" y="442.1085033030751" width="81.13589612674292" height="121.07702409451275" rx="2" style="fill: tomato;"/><text fill="white" x="215.030854334359" y="442.1085033030751" style="shape-inside: url(#rect50); text-align: center;">(GO0010200) response to chitin</text></g><g><rect x="215.030854334359" y="565.1855273975879" width="81.13589612674292" height="30.814472602412252" rx="2" style="fill: tomato;"/><text fill="white" x="215.030854334359" y="565.1855273975879" style="shape-inside: url(#rect51); text-align: center;">(GO0010555) response to mannitol</text></g><g><rect x="298.1667504611019" y="285.27981370007114" width="26.684322442913356" height="64.95374091230292" rx="2" style="fill: tomato;"/><text fill="white" x="298.1667504611019" y="285.27981370007114" style="shape-inside: url(#rect52); text-align: center;">(GO0014070) response to organic cyclic compound</text></g><g><rect x="326.85107290401527" y="285.27981370007114" width="21.57205145906954" height="64.95374091230292" rx="2" style="fill: tomato;"/><text fill="white" x="326.85107290401527" y="285.27981370007114" style="shape-inside: url(#rect53); text-align: center;">(GO0016051) carbohydrate biosynthetic process</text></g><g><rect x="350.4231243630848" y="285.27981370007114" width="24.792148898182575" height="64.95374091230292" rx="2" style="fill: tomato;"/><text fill="white" x="350.4231243630848" y="285.27981370007114" style="shape-inside: url(#rect54); text-align: center;">(GO0019243) methylglyoxal catabolic process to D-lactate via S-lactoyl-glutathione</text></g><g><rect x="377.2152732612674" y="285.27981370007114" width="34.39314720199798" height="64.95374091230292" rx="2" style="fill: tomato;"/><text fill="white" x="377.2152732612674" y="285.27981370007114" style="shape-inside: url(#rect55); text-align: center;">(GO0019441) tryptophan catabolic process to kynurenine</text></g><g><rect x="413.60842046326536" y="285.27981370007114" width="58.369224139796415" height="64.95374091230292" rx="2" style="fill: tomato;"/><text fill="white" x="413.60842046326536" y="285.27981370007114" style="shape-inside: url(#rect56); text-align: center;">(GO0019722) calcium-mediated signaling</text></g><g><rect x="473.9776446030618" y="285.27981370007114" width="31.10649657292879" height="64.95374091230292" rx="2" style="fill: tomato;"/><text fill="white" x="473.9776446030618" y="285.27981370007114" style="shape-inside: url(#rect57); text-align: center;">(GO0019760) glucosinolate metabolic process</text></g><g><rect x="507.08414117599057" y="285.27981370007114" width="25.929009063991884" height="64.95374091230292" rx="2" style="fill: tomato;"/><text fill="white" x="507.08414117599057" y="285.27981370007114" style="shape-inside: url(#rect58); text-align: center;">(GO0031930) mitochondria-nucleus signaling pathway</text></g><g><rect x="535.0131502399825" y="285.27981370007114" width="39.60005708601409" height="64.95374091230292" rx="2" style="fill: tomato;"/><text fill="white" x="535.0131502399825" y="285.27981370007114" style="shape-inside: url(#rect59); text-align: center;">(GO0032491) detection of molecule of fungal origin</text></g><g><rect x="298.1667504611019" y="352.23355461237406" width="44.04301868282977" height="41.767888659223615" rx="2" style="fill: tomato;"/><text fill="white" x="298.1667504611019" y="352.23355461237406" style="shape-inside: url(#rect60); text-align: center;">(GO0033683) nucleotide-excision repair, DNA incision</text></g><g><rect x="298.1667504611019" y="396.0014432715977" width="44.04301868282977" height="55.29553331789225" rx="2" style="fill: tomato;"/><text fill="white" x="298.1667504611019" y="396.0014432715977" style="shape-inside: url(#rect61); text-align: center;">(GO0042542) response to hydrogen peroxide</text></g><g><rect x="298.1667504611019" y="453.29697658948993" width="44.04301868282977" height="32.09234343632659" rx="2" style="fill: tomato;"/><text fill="white" x="298.1667504611019" y="453.29697658948993" style="shape-inside: url(#rect62); text-align: center;">(GO0044262) cellular carbohydrate metabolic process</text></g><g><rect x="298.1667504611019" y="487.3893200258165" width="44.04301868282977" height="69.95347410346591" rx="2" style="fill: tomato;"/><text fill="white" x="298.1667504611019" y="487.3893200258165" style="shape-inside: url(#rect63); text-align: center;">(GO0046256) 2,4,6-trinitrotoluene catabolic process</text></g><g><rect x="298.1667504611019" y="559.3427941292824" width="44.04301868282977" height="36.65720587071769" rx="2" style="fill: tomato;"/><text fill="white" x="298.1667504611019" y="559.3427941292824" style="shape-inside: url(#rect64); text-align: center;">(GO0046740) transport of virus in host, cell to cell</text></g><g><rect x="344.2097691439317" y="352.23355461237406" width="212.25149178932656" height="94.82591206568975" rx="2" style="fill: tomato;"/><text fill="white" x="344.2097691439317" y="352.23355461237406" style="shape-inside: url(#rect65); text-align: center;">(GO0050832) defense response to fungus</text></g><g><rect x="558.4612609332582" y="352.23355461237406" width="16.151946392738296" height="94.82591206568975" rx="2" style="fill: tomato;"/><text fill="white" x="558.4612609332582" y="352.23355461237406" style="shape-inside: url(#rect66); text-align: center;">(GO0052542) defense response by callose deposition</text></g><g><rect x="344.2097691439317" y="449.0594666780638" width="59.36212543736377" height="54.65015754598062" rx="2" style="fill: tomato;"/><text fill="white" x="344.2097691439317" y="449.0594666780638" style="shape-inside: url(#rect67); text-align: center;">(GO0060416) response to growth hormone</text></g><g><rect x="344.2097691439317" y="505.70962422404443" width="59.36212543736377" height="45.39504969757604" rx="2" style="fill: tomato;"/><text fill="white" x="344.2097691439317" y="505.70962422404443" style="shape-inside: url(#rect68); text-align: center;">(GO0061025) membrane fusion</text></g><g><rect x="344.2097691439317" y="553.1046739216205" width="59.36212543736377" height="42.895326078379526" rx="2" style="fill: tomato;"/><text fill="white" x="344.2097691439317" y="553.1046739216205" style="shape-inside: url(#rect69); text-align: center;">(GO0070413) trehalose metabolism in response to stress</text></g><g><rect x="405.57189458129545" y="449.0594666780638" width="54.5464677080671" height="70.88216978452374" rx="2" style="fill: tomato;"/><text fill="white" x="405.57189458129545" y="449.0594666780638" style="shape-inside: url(#rect70); text-align: center;">(GO0071258) cellular response to gravity</text></g><g><rect x="405.57189458129545" y="521.9416364625876" width="54.5464677080671" height="74.05836353741256" rx="2" style="fill: tomato;"/><text fill="white" x="405.57189458129545" y="521.9416364625876" style="shape-inside: url(#rect71); text-align: center;">(GO0071446) cellular response to salicylic acid stimulus</text></g><g><rect x="462.11836228936255" y="449.0594666780638" width="112.49484503663399" height="115.02058308953167" rx="2" style="fill: tomato;"/><text fill="white" x="462.11836228936255" y="449.0594666780638" style="shape-inside: url(#rect72); text-align: center;">(GO0071456) cellular response to hypoxia</text></g><g><rect x="462.11836228936255" y="566.0800497675955" width="57.42281648557463" height="29.91995023240463" rx="2" style="fill: tomato;"/><text fill="white" x="462.11836228936255" y="566.0800497675955" style="shape-inside: url(#rect73); text-align: center;">(GO0071494) cellular response to UV-C</text></g><g><rect x="521.5411787749372" y="566.0800497675955" width="53.07202855106027" height="29.91995023240463" rx="2" style="fill: tomato;"/><text fill="white" x="521.5411787749372" y="566.0800497675955" style="shape-inside: url(#rect74); text-align: center;">(GO1904585) response to putrescine</text></g></g><g id="ExportContainer_Group_GO0009718"><rect x="579.6132073259965" y="3" width="16.052596084584707" height="178.11949375579053" rx="2" style="stroke: gainsboro; fill: white;"/><g><rect x="580.6132073259965" y="4" width="14.052596084584707" height="176.11949375579053" rx="2" style="fill: royalblue;"/><text fill="white" x="580.6132073259965" y="4" style="shape-inside: url(#rect75); text-align: center;">(GO0009718, representative) anthocyanin-containing compound biosynthetic process</text></g></g><g id="ExportContainer_Group_GO0009768"><rect x="599.6658034105812" y="3" width="54.05481092893956" height="178.11949375579053" rx="2" style="stroke: gainsboro; fill: white;"/><g><rect x="600.6658034105812" y="4" width="52.05481092893956" height="122.64190060721165" rx="2" style="fill: mediumseagreen;"/><text fill="white" x="600.6658034105812" y="4" style="shape-inside: url(#rect76); text-align: center;">(GO0009768, representative) photosynthesis, light harvesting in photosystem I</text></g><g><rect x="600.6658034105812" y="128.64190060721165" width="52.05481092893956" height="51.477593148578876" rx="2" style="fill: mediumseagreen;"/><text fill="white" x="600.6658034105812" y="128.64190060721165" style="shape-inside: url(#rect77); text-align: center;">(GO0009769) photosynthesis, light harvesting in photosystem II</text></g></g><g id="ExportContainer_Group_GO0015865"><rect x="657.7206143395208" y="3" width="239.2793856604792" height="178.11949375579053" rx="2" style="stroke: gainsboro; fill: white;"/><g><rect x="658.7206143395208" y="4" width="76.20650674736385" height="60.8593162257702" rx="2" style="fill: darkorchid;"/><text fill="white" x="658.7206143395208" y="4" style="shape-inside: url(#rect78); text-align: center;">(GO0015865, representative) purine nucleotide transport</text></g><g><rect x="658.7206143395208" y="66.8593162257702" width="76.20650674736385" height="24.39167703406983" rx="2" style="fill: darkorchid;"/><text fill="white" x="658.7206143395208" y="66.8593162257702" style="shape-inside: url(#rect79); text-align: center;">(GO0006612) protein targeting to membrane</text></g><g><rect x="658.7206143395208" y="93.25099325984003" width="76.20650674736385" height="26.44006926529302" rx="2" style="fill: darkorchid;"/><text fill="white" x="658.7206143395208" y="93.25099325984003" style="shape-inside: url(#rect80); text-align: center;">(GO0006816) calcium ion transport</text></g><g><rect x="658.7206143395208" y="121.69106252513305" width="76.20650674736385" height="58.42843123065748" rx="2" style="fill: darkorchid;"/><text fill="white" x="658.7206143395208" y="121.69106252513305" style="shape-inside: url(#rect81); text-align: center;">(GO0006829) zinc ion transport</text></g><g><rect x="736.9271210868847" y="4" width="30.629398561770245" height="58.002330848283" rx="2" style="fill: darkorchid;"/><text fill="white" x="736.9271210868847" y="4" style="shape-inside: url(#rect82); text-align: center;">(GO0006858) extracellular transport</text></g><g><rect x="769.5565196486549" y="4" width="24.25685497965503" height="58.002330848283" rx="2" style="fill: darkorchid;"/><text fill="white" x="769.5565196486549" y="4" style="shape-inside: url(#rect83); text-align: center;">(GO0015670) carbon dioxide transport</text></g><g><rect x="795.8133746283099" y="4" width="24.898073718425394" height="58.002330848283" rx="2" style="fill: darkorchid;"/><text fill="white" x="795.8133746283099" y="4" style="shape-inside: url(#rect84); text-align: center;">(GO0015749) monosaccharide transmembrane transport</text></g><g><rect x="822.7114483467353" y="4" width="43.44495633406257" height="58.002330848283" rx="2" style="fill: darkorchid;"/><text fill="white" x="822.7114483467353" y="4" style="shape-inside: url(#rect85); text-align: center;">(GO0036444) calcium import into the mitochondrion</text></g><g><rect x="868.1564046807979" y="4" width="27.84359531920211" height="58.002330848283" rx="2" style="fill: darkorchid;"/><text fill="white" x="868.1564046807979" y="4" style="shape-inside: url(#rect86); text-align: center;">(GO0048278) vesicle docking</text></g><g><rect x="736.9271210868847" y="64.00233084828301" width="52.50872563307814" height="83.50318141249457" rx="2" style="fill: darkorchid;"/><text fill="white" x="736.9271210868847" y="64.00233084828301" style="shape-inside: url(#rect87); text-align: center;">(GO0055085) transmembrane transport</text></g><g><rect x="736.9271210868847" y="149.50551226077758" width="52.50872563307814" height="30.61398149501295" rx="2" style="fill: darkorchid;"/><text fill="white" x="736.9271210868847" y="149.50551226077758" style="shape-inside: url(#rect88); text-align: center;">(GO0070509) calcium ion import</text></g><g><rect x="791.4358467199628" y="64.00233084828301" width="78.6840897988302" height="57.1296398587462" rx="2" style="fill: darkorchid;"/><text fill="white" x="791.4358467199628" y="64.00233084828301" style="shape-inside: url(#rect89); text-align: center;">(GO0071577) zinc ion transmembrane transport</text></g><g><rect x="872.119936518793" y="64.00233084828301" width="23.880063481207003" height="57.1296398587462" rx="2" style="fill: darkorchid;"/><text fill="white" x="872.119936518793" y="64.00233084828301" style="shape-inside: url(#rect90); text-align: center;">(GO0090449) phloem glucosinolate loading</text></g><g><rect x="791.4358467199628" y="123.13197070702921" width="59.82181360835966" height="32.234466743109124" rx="2" style="fill: darkorchid;"/><text fill="white" x="791.4358467199628" y="123.13197070702921" style="shape-inside: url(#rect91); text-align: center;">(GO0097638) L-arginine import across plasma membrane</text></g><g><rect x="791.4358467199628" y="157.36643745013833" width="59.82181360835966" height="22.753056305652194" rx="2" style="fill: darkorchid;"/><text fill="white" x="791.4358467199628" y="157.36643745013833" style="shape-inside: url(#rect92); text-align: center;">(GO1901349) glucosinolate transport</text></g><g><rect x="853.2576603283225" y="123.13197070702921" width="42.74233967167754" height="56.98752304876123" rx="2" style="fill: darkorchid;"/><text fill="white" x="853.2576603283225" y="123.13197070702921" style="shape-inside: url(#rect93); text-align: center;">(GO1903825) organic acid transmembrane transport</text></g></g><g id="ExportContainer_Group_GO0015979"><rect x="579.6132073259965" y="185.11949375579053" width="94.06379057067011" height="17.170864421882186" rx="2" style="stroke: gainsboro; fill: white;"/><g><rect x="580.6132073259965" y="186.11949375579053" width="92.06379057067011" height="15.170864421882186" rx="2" style="fill: darkorange;"/><text fill="white" x="580.6132073259965" y="186.11949375579053" style="shape-inside: url(#rect94); text-align: center;">(GO0015979, representative) photosynthesis</text></g></g><g id="ExportContainer_Group_GO0019748"><rect x="677.6769978966666" y="185.11949375579053" width="117.17128116647814" height="17.170864421882186" rx="2" style="stroke: gainsboro; fill: white;"/><g><rect x="678.6769978966666" y="186.11949375579053" width="115.17128116647814" height="15.170864421882186" rx="2" style="fill: slateblue;"/><text fill="white" x="678.6769978966666" y="186.11949375579053" style="shape-inside: url(#rect95); text-align: center;">(GO0019748, representative) secondary metabolic process</text></g></g><g id="ExportContainer_Group_GO0023052"><rect x="798.8482790631448" y="185.11949375579053" width="98.15172093685476" height="17.170864421882186" rx="2" style="stroke: gainsboro; fill: white;"/><g><rect x="799.8482790631448" y="186.11949375579053" width="96.15172093685476" height="15.170864421882186" rx="2" style="fill: lightsalmon;"/><text fill="black" x="799.8482790631448" y="186.11949375579053" style="shape-inside: url(#rect96); text-align: center;">(GO0023052, representative) signaling</text></g></g><g id="ExportContainer_Group_GO0032436"><rect x="579.6132073259965" y="206.29035817767272" width="317.38679267400346" height="238.17722757873753" rx="2" style="stroke: gainsboro; fill: white;"/><g><rect x="580.6132073259965" y="207.29035817767272" width="79.90753180945046" height="103.92839312707173" rx="2" style="fill: paleturquoise;"/><text fill="black" x="580.6132073259965" y="207.29035817767272" style="shape-inside: url(#rect97); text-align: center;">(GO0032436, representative) positive regulation of proteasomal ubiquitin-dependent protein catabolic process</text></g><g><rect x="580.6132073259965" y="313.21875130474444" width="79.90753180945046" height="69.98796811755096" rx="2" style="fill: paleturquoise;"/><text fill="black" x="580.6132073259965" y="313.21875130474444" style="shape-inside: url(#rect98); text-align: center;">(GO0002682) regulation of immune system process</text></g><g><rect x="580.6132073259965" y="385.2067194222954" width="79.90753180945046" height="24.844917655015365" rx="2" style="fill: paleturquoise;"/><text fill="black" x="580.6132073259965" y="385.2067194222954" style="shape-inside: url(#rect99); text-align: center;">(GO0002758) innate immune response-activating signal transduction</text></g><g><rect x="580.6132073259965" y="412.0516370773108" width="79.90753180945046" height="31.41594867909953" rx="2" style="fill: paleturquoise;"/><text fill="black" x="580.6132073259965" y="412.0516370773108" style="shape-inside: url(#rect100); text-align: center;">(GO0006355) regulation of transcription, DNA-templated</text></g><g><rect x="662.520739135447" y="207.29035817767272" width="75.98542194746472" height="51.906784042863194" rx="2" style="fill: paleturquoise;"/><text fill="black" x="662.520739135447" y="207.29035817767272" style="shape-inside: url(#rect101); text-align: center;">(GO0006874) cellular calcium ion homeostasis</text></g><g><rect x="740.5061610829117" y="207.29035817767272" width="39.968049186016515" height="51.906784042863194" rx="2" style="fill: paleturquoise;"/><text fill="black" x="740.5061610829117" y="207.29035817767272" style="shape-inside: url(#rect102); text-align: center;">(GO0009851) auxin biosynthetic process</text></g><g><rect x="782.4742102689282" y="207.29035817767272" width="35.61020358783446" height="51.906784042863194" rx="2" style="fill: paleturquoise;"/><text fill="black" x="782.4742102689282" y="207.29035817767272" style="shape-inside: url(#rect103); text-align: center;">(GO0010565) regulation of cellular ketone metabolic process</text></g><g><rect x="820.0844138567627" y="207.29035817767272" width="43.91887997107574" height="51.906784042863194" rx="2" style="fill: paleturquoise;"/><text fill="black" x="820.0844138567627" y="207.29035817767272" style="shape-inside: url(#rect104); text-align: center;">(GO0010600) regulation of auxin biosynthetic process</text></g><g><rect x="866.0032938278384" y="207.29035817767272" width="29.996706172161566" height="51.906784042863194" rx="2" style="fill: paleturquoise;"/><text fill="black" x="866.0032938278384" y="207.29035817767272" style="shape-inside: url(#rect105); text-align: center;">(GO0010929) positive regulation of auxin mediated signaling pathway</text></g><g><rect x="662.520739135447" y="261.1971422205359" width="76.44078672873593" height="108.5498278149222" rx="2" style="fill: paleturquoise;"/><text fill="black" x="662.520739135447" y="261.1971422205359" style="shape-inside: url(#rect106); text-align: center;">(GO0031347) regulation of defense response</text></g><g><rect x="662.520739135447" y="371.7469700354581" width="76.44078672873593" height="20.0940659112228" rx="2" style="fill: paleturquoise;"/><text fill="black" x="662.520739135447" y="371.7469700354581" style="shape-inside: url(#rect107); text-align: center;">(GO0032008) positive regulation of TOR signaling</text></g><g><rect x="662.520739135447" y="393.8410359466809" width="76.44078672873593" height="29.801846573018906" rx="2" style="fill: paleturquoise;"/><text fill="black" x="662.520739135447" y="393.8410359466809" style="shape-inside: url(#rect108); text-align: center;">(GO0032780) negative regulation of ATP-dependent activity</text></g><g><rect x="662.520739135447" y="425.6428825196998" width="76.44078672873593" height="17.824703236710434" rx="2" style="fill: paleturquoise;"/><text fill="black" x="662.520739135447" y="425.6428825196998" style="shape-inside: url(#rect109); text-align: center;">(GO0043069) negative regulation of programmed cell death</text></g><g><rect x="740.9615258641829" y="261.1971422205359" width="31.358324228329366" height="55.41254154901475" rx="2" style="fill: paleturquoise;"/><text fill="black" x="740.9615258641829" y="261.1971422205359" style="shape-inside: url(#rect110); text-align: center;">(GO0045595) regulation of cell differentiation</text></g><g><rect x="774.3198500925123" y="261.1971422205359" width="28.91509277047578" height="55.41254154901475" rx="2" style="fill: paleturquoise;"/><text fill="black" x="774.3198500925123" y="261.1971422205359" style="shape-inside: url(#rect111); text-align: center;">(GO0045893) positive regulation of transcription, DNA-templated</text></g><g><rect x="805.2349428629881" y="261.1971422205359" width="47.25570446261838" height="55.41254154901475" rx="2" style="fill: paleturquoise;"/><text fill="black" x="805.2349428629881" y="261.1971422205359" style="shape-inside: url(#rect112); text-align: center;">(GO0045951) positive regulation of mitotic recombination</text></g><g><rect x="854.4906473256065" y="261.1971422205359" width="41.509352674393654" height="55.41254154901475" rx="2" style="fill: paleturquoise;"/><text fill="black" x="854.4906473256065" y="261.1971422205359" style="shape-inside: url(#rect113); text-align: center;">(GO0046890) regulation of lipid biosynthetic process</text></g><g><rect x="740.9615258641829" y="318.60968376955066" width="62.76682625022397" height="29.775433000710564" rx="2" style="fill: paleturquoise;"/><text fill="black" x="740.9615258641829" y="318.60968376955066" style="shape-inside: url(#rect114); text-align: center;">(GO0060918) auxin transport</text></g><g><rect x="740.9615258641829" y="350.3851167702612" width="62.76682625022397" height="22.60499032414515" rx="2" style="fill: paleturquoise;"/><text fill="black" x="740.9615258641829" y="350.3851167702612" style="shape-inside: url(#rect115); text-align: center;">(GO0070863) positive regulation of protein exit from endoplasmic reticulum</text></g><g><rect x="740.9615258641829" y="374.99010709440637" width="62.76682625022397" height="27.675836495142278" rx="2" style="fill: paleturquoise;"/><text fill="black" x="740.9615258641829" y="374.99010709440637" style="shape-inside: url(#rect116); text-align: center;">(GO0080164) regulation of nitric oxide metabolic process</text></g><g><rect x="740.9615258641829" y="404.66594358954865" width="62.76682625022397" height="38.80164216686154" rx="2" style="fill: paleturquoise;"/><text fill="black" x="740.9615258641829" y="404.66594358954865" style="shape-inside: url(#rect117); text-align: center;">(GO1901671) positive regulation of superoxide dismutase activity</text></g><g><rect x="805.7283521144069" y="318.60968376955066" width="24.752716418178466" height="54.76787085047101" rx="2" style="fill: paleturquoise;"/><text fill="black" x="805.7283521144069" y="318.60968376955066" style="shape-inside: url(#rect118); text-align: center;">(GO1902455) negative regulation of stem cell population maintenance</text></g><g><rect x="832.4810685325854" y="318.60968376955066" width="31.857351303056475" height="54.76787085047101" rx="2" style="fill: paleturquoise;"/><text fill="black" x="832.4810685325854" y="318.60968376955066" style="shape-inside: url(#rect119); text-align: center;">(GO1904277) negative regulation of wax biosynthetic process</text></g><g><rect x="866.3384198356418" y="318.60968376955066" width="29.661580164358156" height="54.76787085047101" rx="2" style="fill: paleturquoise;"/><text fill="black" x="866.3384198356418" y="318.60968376955066" style="shape-inside: url(#rect120); text-align: center;">(GO2000031) regulation of salicylic acid mediated signaling pathway</text></g><g><rect x="805.7283521144069" y="375.37755462002167" width="67.44227561956825" height="32.12591222264933" rx="2" style="fill: paleturquoise;"/><text fill="black" x="805.7283521144069" y="375.37755462002167" style="shape-inside: url(#rect121); text-align: center;">(GO2000082) regulation of L-ascorbic acid biosynthetic process</text></g><g><rect x="805.7283521144069" y="409.503466842671" width="67.44227561956825" height="33.96411891373924" rx="2" style="fill: paleturquoise;"/><text fill="black" x="805.7283521144069" y="409.503466842671" style="shape-inside: url(#rect122); text-align: center;">(GO2000605) positive regulation of secondary growth</text></g><g><rect x="875.1706277339752" y="375.37755462002167" width="20.829372266024848" height="68.09003113638857" rx="2" style="fill: paleturquoise;"/><text fill="black" x="875.1706277339752" y="375.37755462002167" style="shape-inside: url(#rect123); text-align: center;">(GO2000762) regulation of phenylpropanoid metabolic process</text></g></g><g id="ExportContainer_Group_GO0033481"><rect x="579.6132073259965" y="448.46758575641024" width="84.683726240581" height="128.36208197009262" rx="2" style="stroke: gainsboro; fill: white;"/><g><rect x="580.6132073259965" y="449.46758575641024" width="54.997657773641436" height="50.53439505469248" rx="2" style="fill: gold;"/><text fill="black" x="580.6132073259965" y="449.46758575641024" style="shape-inside: url(#rect124); text-align: center;">(GO0033481, representative) galacturonate biosynthetic process</text></g><g><rect x="637.610865099638" y="449.46758575641024" width="25.686068466939446" height="50.53439505469248" rx="2" style="fill: gold;"/><text fill="black" x="637.610865099638" y="449.46758575641024" style="shape-inside: url(#rect125); text-align: center;">(GO0009695) jasmonic acid biosynthetic process</text></g><g><rect x="580.6132073259965" y="502.0019808111027" width="52.71806150011059" height="34.982818452961055" rx="2" style="fill: gold;"/><text fill="black" x="580.6132073259965" y="502.0019808111027" style="shape-inside: url(#rect126); text-align: center;">(GO0034626) fatty acid elongation, polyunsaturated fatty acid</text></g><g><rect x="580.6132073259965" y="538.9847992640638" width="52.71806150011059" height="36.84486846243908" rx="2" style="fill: gold;"/><text fill="black" x="580.6132073259965" y="538.9847992640638" style="shape-inside: url(#rect127); text-align: center;">(GO0042761) very long-chain fatty acid biosynthetic process</text></g><g><rect x="635.3312688261071" y="502.0019808111027" width="27.9656647404704" height="73.82768691540014" rx="2" style="fill: gold;"/><text fill="black" x="635.3312688261071" y="502.0019808111027" style="shape-inside: url(#rect128); text-align: center;">(GO0062034) L-pipecolic acid biosynthetic process</text></g></g><g id="ExportContainer_Group_GO0042440"><rect x="579.6132073259965" y="580.8296677265029" width="84.683726240581" height="16.170332273497138" rx="2" style="stroke: gainsboro; fill: white;"/><g><rect x="580.6132073259965" y="581.8296677265029" width="82.683726240581" height="14.170332273497138" rx="2" style="fill: skyblue;"/><text fill="black" x="580.6132073259965" y="581.8296677265029" style="shape-inside: url(#rect129); text-align: center;">(GO0042440, representative) pigment metabolic process</text></g></g><g id="ExportContainer_Group_GO0045730"><rect x="668.2969335665775" y="448.46758575641024" width="20.665487326592483" height="75.02119377305871" rx="2" style="stroke: gainsboro; fill: white;"/><g><rect x="669.2969335665775" y="449.46758575641024" width="18.665487326592483" height="73.02119377305871" rx="2" style="fill: lightgreen;"/><text fill="black" x="669.2969335665775" y="449.46758575641024" style="shape-inside: url(#rect130); text-align: center;">(GO0045730, representative) respiratory burst</text></g></g><g id="ExportContainer_Group_GO0048363"><rect x="668.2969335665775" y="527.488779529469" width="20.665487326592483" height="69.51122047053104" rx="2" style="stroke: gainsboro; fill: white;"/><g><rect x="669.2969335665775" y="528.488779529469" width="18.665487326592483" height="67.51122047053104" rx="2" style="fill: violet;"/><text fill="white" x="669.2969335665775" y="528.488779529469" style="shape-inside: url(#rect131); text-align: center;">(GO0048363, representative) mucilage pectin metabolic process</text></g></g><g id="ExportContainer_Group_GO0051290"><rect x="692.96242089317" y="448.46758575641024" width="193.05482184443406" height="73.07255910936135" rx="2" style="stroke: gainsboro; fill: white;"/><g><rect x="693.96242089317" y="449.46758575641024" width="57.720428662143036" height="40.31825092946099" rx="2" style="fill: khaki;"/><text fill="black" x="693.96242089317" y="449.46758575641024" style="shape-inside: url(#rect132); text-align: center;">(GO0051290, representative) protein heterotetramerization</text></g><g><rect x="693.96242089317" y="491.78583668587123" width="57.720428662143036" height="28.754308179900363" rx="2" style="fill: khaki;"/><text fill="black" x="693.96242089317" y="491.78583668587123" style="shape-inside: url(#rect133); text-align: center;">(GO0007099) centriole replication</text></g><g><rect x="753.682849555313" y="449.46758575641024" width="48.34419496481348" height="38.188475564924886" rx="2" style="fill: khaki;"/><text fill="black" x="753.682849555313" y="449.46758575641024" style="shape-inside: url(#rect134); text-align: center;">(GO0016050) vesicle organization</text></g><g><rect x="753.682849555313" y="489.65606132133513" width="48.34419496481348" height="30.884083544436464" rx="2" style="fill: khaki;"/><text fill="black" x="753.682849555313" y="489.65606132133513" style="shape-inside: url(#rect135); text-align: center;">(GO0017126) nucleologenesis</text></g><g><rect x="804.0270445201265" y="449.46758575641024" width="48.26255534309507" height="34.57054127494388" rx="2" style="fill: khaki;"/><text fill="black" x="804.0270445201265" y="449.46758575641024" style="shape-inside: url(#rect136); text-align: center;">(GO0022618) ribonucleoprotein complex assembly</text></g><g><rect x="804.0270445201265" y="486.0381270313541" width="48.26255534309507" height="34.50201783441747" rx="2" style="fill: khaki;"/><text fill="black" x="804.0270445201265" y="486.0381270313541" style="shape-inside: url(#rect137); text-align: center;">(GO0042545) cell wall modification</text></g><g><rect x="854.2895998632216" y="449.46758575641024" width="30.727642874382468" height="71.07255910936135" rx="2" style="fill: khaki;"/><text fill="black" x="854.2895998632216" y="449.46758575641024" style="shape-inside: url(#rect138); text-align: center;">(GO0061024) membrane organization</text></g></g><g id="ExportContainer_Group_GO0090057"><rect x="692.96242089317" y="525.5401448657716" width="193.05482184443406" height="71.4598551342284" rx="2" style="stroke: gainsboro; fill: white;"/><g><rect x="693.96242089317" y="526.5401448657716" width="103.1158412525524" height="34.62391652886856" rx="2" style="fill: lightskyblue;"/><text fill="black" x="693.96242089317" y="526.5401448657716" style="shape-inside: url(#rect139); text-align: center;">(GO0090057, representative) root radial pattern formation</text></g><g><rect x="693.96242089317" y="563.1640613946402" width="103.1158412525524" height="32.83593860535984" rx="2" style="fill: lightskyblue;"/><text fill="black" x="693.96242089317" y="563.1640613946402" style="shape-inside: url(#rect140); text-align: center;">(GO0007568) aging</text></g><g><rect x="799.0782621457224" y="526.5401448657716" width="54.6277835606154" height="43.27367366789031" rx="2" style="fill: lightskyblue;"/><text fill="black" x="799.0782621457224" y="526.5401448657716" style="shape-inside: url(#rect141); text-align: center;">(GO0009875) pollen-pistil interaction</text></g><g><rect x="799.0782621457224" y="571.8138185336619" width="54.6277835606154" height="24.1861814663381" rx="2" style="fill: lightskyblue;"/><text fill="black" x="799.0782621457224" y="571.8138185336619" style="shape-inside: url(#rect142); text-align: center;">(GO0010229) inflorescence development</text></g><g><rect x="855.7060457063378" y="526.5401448657716" width="29.31119703126626" height="69.4598551342284" rx="2" style="fill: lightskyblue;"/><text fill="black" x="855.7060457063378" y="526.5401448657716" style="shape-inside: url(#rect143); text-align: center;">(GO0010338) leaf formation</text></g></g><g id="ExportContainer_Group_GO1901657"><rect x="890.0172427376041" y="448.46758575641024" width="6.982757262395921" height="148.53241424358703" rx="2" style="stroke: gainsboro; fill: white;"/><g><rect x="891.0172427376041" y="449.46758575641024" width="4.982757262395921" height="146.53241424358703" rx="2" style="fill: crimson;"/><text fill="white" x="891.0172427376041" y="449.46758575641024" style="shape-inside: url(#rect144); text-align: center;">(GO1901657, representative) glycosyl compound metabolic process</text></g></g></g></svg>